<?xml version="1.0" encoding="UTF-8"?>
<!DOCTYPE svg PUBLIC "-//W3C//DTD SVG 1.1//EN" "http://www.w3.org/Graphics/SVG/1.1/DTD/svg11.dtd">
<svg xmlns="http://www.w3.org/2000/svg" version="1.1" width="167px" height="195px" style="shape-rendering:geometricPrecision; text-rendering:geometricPrecision; image-rendering:optimizeQuality; fill-rule:evenodd; clip-rule:evenodd" xmlns:xlink="http://www.w3.org/1999/xlink">
<g><path style="opacity:0.958" fill="#43dcfd" d="M 51.5,28.5 C 40.7908,27.3844 30.1241,26.051 19.5,24.5C 27.3262,15.2767 36.3262,14.11 46.5,21C 48.7972,23.0987 50.4639,25.5987 51.5,28.5 Z"/></g>
<g><path style="opacity:0.977" fill="#42cdfd" d="M 19.5,24.5 C 30.1241,26.051 40.7908,27.3844 51.5,28.5C 52.1495,30.4352 52.4828,32.4352 52.5,34.5C 40.7278,32.9051 29.0611,31.2385 17.5,29.5C 17.4021,27.4471 18.0687,25.7804 19.5,24.5 Z"/></g>
<g><path style="opacity:0.968" fill="#41befc" d="M 17.5,29.5 C 29.0611,31.2385 40.7278,32.9051 52.5,34.5C 52.552,36.9029 52.2186,39.2362 51.5,41.5C 39.887,39.7568 28.2204,38.4235 16.5,37.5C 16.1936,34.6146 16.5269,31.9479 17.5,29.5 Z"/></g>
<g><path style="opacity:0.952" fill="#41affc" d="M 16.5,37.5 C 28.2204,38.4235 39.887,39.7568 51.5,41.5C 50.4376,42.5754 50.4376,43.5754 51.5,44.5C 55.8135,45.2364 59.8135,46.5698 63.5,48.5C 63.5,52.8333 63.5,57.1667 63.5,61.5C 58.213,60.6576 52.8797,60.3243 47.5,60.5C 47.6657,56.1539 47.499,51.8206 47,47.5C 46.6174,48.056 46.1174,48.3893 45.5,48.5C 37.0452,46.666 28.3786,45.3327 19.5,44.5C 17.7073,42.5739 16.7073,40.2406 16.5,37.5 Z"/></g>
<g><path style="opacity:0.941" fill="#409cfb" d="M 19.5,44.5 C 28.3786,45.3327 37.0452,46.666 45.5,48.5C 41.9085,50.9576 37.9085,52.2909 33.5,52.5C 30.6726,52.4162 28.006,51.7496 25.5,50.5C 22.5964,49.3856 20.5964,47.3856 19.5,44.5 Z"/></g>
<g><path style="opacity:0.964" fill="#f8d756" d="M 142.5,56.5 C 130.899,54.7295 119.233,53.3962 107.5,52.5C 111.322,42.4163 118.655,38.2496 129.5,40C 137.417,42.7431 141.75,48.2431 142.5,56.5 Z"/></g>
<g><path style="opacity:1" fill="#42cafc" d="M 47.5,60.5 C 42.0024,61.2488 37.3358,63.5821 33.5,67.5C 33.5,62.5 33.5,57.5 33.5,52.5C 37.9085,52.2909 41.9085,50.9576 45.5,48.5C 46.1174,48.3893 46.6174,48.056 47,47.5C 47.499,51.8206 47.6657,56.1539 47.5,60.5 Z"/></g>
<g><path style="opacity:0.975" fill="#43e1fd" d="M 25.5,50.5 C 28.006,51.7496 30.6726,52.4162 33.5,52.5C 33.5,57.5 33.5,62.5 33.5,67.5C 32.075,68.922 31.075,70.5887 30.5,72.5C 27.7812,75.9523 26.1145,79.9523 25.5,84.5C 24.1667,90.8333 24.1667,97.1667 25.5,103.5C 25.5,105.167 25.5,106.833 25.5,108.5C 25.5,115.5 25.5,122.5 25.5,129.5C 23.0764,126.992 21.4097,123.992 20.5,120.5C 20.5,99.1667 20.5,77.8333 20.5,56.5C 22.1667,54.5 23.8333,52.5 25.5,50.5 Z"/></g>
<g><path style="opacity:0.987" fill="#3f98fb" d="M 63.5,48.5 C 73.0058,52.5008 80.1725,59.1674 85,68.5C 86.0429,71.7568 86.5429,75.0901 86.5,78.5C 86.6716,79.4916 86.3382,80.1583 85.5,80.5C 76.517,71.3674 65.8503,68.7007 53.5,72.5C 45.6538,73.0405 37.9871,73.0405 30.5,72.5C 31.075,70.5887 32.075,68.922 33.5,67.5C 37.3358,63.5821 42.0024,61.2488 47.5,60.5C 52.8797,60.3243 58.213,60.6576 63.5,61.5C 63.5,57.1667 63.5,52.8333 63.5,48.5 Z"/></g>
<g><path style="opacity:0.955" fill="#f6be4e" d="M 107.5,52.5 C 119.233,53.3962 130.899,54.7295 142.5,56.5C 142.966,60.9816 141.966,64.9816 139.5,68.5C 129.22,66.9875 118.887,65.9875 108.5,65.5C 106.378,61.312 106.045,56.9787 107.5,52.5 Z"/></g>
<g><path style="opacity:0.899" fill="#44eefe" d="M 20.5,56.5 C 20.5,77.8333 20.5,99.1667 20.5,120.5C 12.0573,104.834 9.55727,88.1673 13,70.5C 14.2278,65.0381 16.7278,60.3714 20.5,56.5 Z"/></g>
<g><path style="opacity:0.989" fill="#f6af49" d="M 108.5,65.5 C 118.887,65.9875 129.22,66.9875 139.5,68.5C 138.167,70.1667 136.833,71.8333 135.5,73.5C 135.826,82.0168 135.493,90.3501 134.5,98.5C 127.988,84.7339 116.988,78.4006 101.5,79.5C 102.209,78.596 103.209,78.2627 104.5,78.5C 104.5,75.5 104.5,72.5 104.5,69.5C 106.195,68.9886 107.861,68.3219 109.5,67.5C 109.137,66.8165 108.804,66.1499 108.5,65.5 Z"/></g>
<g><path style="opacity:0.905" fill="#f7cf54" d="M 104.5,69.5 C 104.5,72.5 104.5,75.5 104.5,78.5C 103.209,78.2627 102.209,78.596 101.5,79.5C 98.7835,79.6785 96.1168,80.1785 93.5,81C 89.3398,83.0226 85.3398,85.1892 81.5,87.5C 82.5804,85.0038 83.9138,82.6705 85.5,80.5C 86.3382,80.1583 86.6716,79.4916 86.5,78.5C 91.6879,73.9858 97.6879,70.9858 104.5,69.5 Z"/></g>
<g><path style="opacity:0.98" fill="#f5a645" d="M 135.5,73.5 C 138.198,73.8449 140.198,75.1782 141.5,77.5C 141.5,96.5 141.5,115.5 141.5,134.5C 137.953,139.62 133.953,144.286 129.5,148.5C 129.334,143.156 129.501,137.823 130,132.5C 132.05,129.852 133.216,126.852 133.5,123.5C 129.02,124.662 124.687,124.662 120.5,123.5C 121.275,118.203 121.608,112.87 121.5,107.5C 126.203,107.563 130.87,107.229 135.5,106.5C 135.599,103.763 135.265,101.096 134.5,98.5C 135.493,90.3501 135.826,82.0168 135.5,73.5 Z"/></g>
<g><path style="opacity:0.959" fill="#f59e43" d="M 141.5,77.5 C 143.017,77.5106 144.184,78.1772 145,79.5C 156.346,98.4655 155.179,116.799 141.5,134.5C 141.5,115.5 141.5,96.5 141.5,77.5 Z"/></g>
<g><path style="opacity:1" fill="#f59941" d="M 101.5,79.5 C 116.988,78.4006 127.988,84.7339 134.5,98.5C 135.265,101.096 135.599,103.763 135.5,106.5C 130.87,107.229 126.203,107.563 121.5,107.5C 114.125,88.4819 100.792,82.4819 81.5,89.5C 80.537,89.0302 80.537,88.3635 81.5,87.5C 85.3398,85.1892 89.3398,83.0226 93.5,81C 96.1168,80.1785 98.7835,79.6785 101.5,79.5 Z"/></g>
<g><path style="opacity:1" fill="#40a4fb" d="M 30.5,72.5 C 37.9871,73.0405 45.6538,73.0405 53.5,72.5C 47.4567,75.8424 42.79,80.5091 39.5,86.5C 34.9296,87.441 30.263,87.7744 25.5,87.5C 25.5,86.5 25.5,85.5 25.5,84.5C 26.1145,79.9523 27.7812,75.9523 30.5,72.5 Z"/></g>
<g><path style="opacity:1" fill="#41b1fc" d="M 25.5,84.5 C 25.5,85.5 25.5,86.5 25.5,87.5C 30.263,87.7744 34.9296,87.441 39.5,86.5C 38.371,90.1517 37.371,93.8184 36.5,97.5C 35.5386,99.2646 35.2053,101.265 35.5,103.5C 32.1667,103.5 28.8333,103.5 25.5,103.5C 24.1667,97.1667 24.1667,90.8333 25.5,84.5 Z"/></g>
<g><path style="opacity:1" fill="#41bdfc" d="M 36.5,97.5 C 36.502,103.523 36.8354,109.523 37.5,115.5C 37.5,116.5 37.5,117.5 37.5,118.5C 34.5,118.5 31.5,118.5 28.5,118.5C 27.8699,114.952 26.8699,111.619 25.5,108.5C 25.5,106.833 25.5,105.167 25.5,103.5C 28.8333,103.5 32.1667,103.5 35.5,103.5C 35.2053,101.265 35.5386,99.2646 36.5,97.5 Z"/></g>
<g><path style="opacity:0.941" fill="#42c9fd" d="M 37.5,115.5 C 39.5452,122.961 42.2118,130.294 45.5,137.5C 42.1024,137.093 38.9357,136.093 36,134.5C 32.8248,129.47 30.3248,124.137 28.5,118.5C 31.5,118.5 34.5,118.5 37.5,118.5C 37.5,117.5 37.5,116.5 37.5,115.5 Z"/></g>
<g><path style="opacity:0.955" fill="#43d5fd" d="M 25.5,108.5 C 26.8699,111.619 27.8699,114.952 28.5,118.5C 30.3248,124.137 32.8248,129.47 36,134.5C 38.9357,136.093 42.1024,137.093 45.5,137.5C 52.3693,148.046 60.036,158.046 68.5,167.5C 64.2458,165.251 60.2458,162.585 56.5,159.5C 50.1882,153.348 44.3549,146.681 39,139.5C 38.5026,142.146 38.3359,144.813 38.5,147.5C 33.1896,142.215 28.8563,136.215 25.5,129.5C 25.5,122.5 25.5,115.5 25.5,108.5 Z"/></g>
<g><path style="opacity:0.98" fill="#f6b54b" d="M 120.5,123.5 C 124.687,124.662 129.02,124.662 133.5,123.5C 133.216,126.852 132.05,129.852 130,132.5C 129.501,137.823 129.334,143.156 129.5,148.5C 125.718,152.623 121.385,155.957 116.5,158.5C 116.335,155.482 116.502,152.482 117,149.5C 121.059,145.944 124.559,141.944 127.5,137.5C 123.076,137.558 118.743,137.225 114.5,136.5C 116.247,132.009 118.247,127.675 120.5,123.5 Z"/></g>
<g><path style="opacity:0.853" fill="#42c4fc" d="M 56.5,159.5 C 55.596,160.209 55.2627,161.209 55.5,162.5C 49.2142,158.215 43.5475,153.215 38.5,147.5C 38.3359,144.813 38.5026,142.146 39,139.5C 44.3549,146.681 50.1882,153.348 56.5,159.5 Z"/></g>
<g><path style="opacity:0.934" fill="#f7ca52" d="M 114.5,136.5 C 118.743,137.225 123.076,137.558 127.5,137.5C 124.559,141.944 121.059,145.944 117,149.5C 116.502,152.482 116.335,155.482 116.5,158.5C 108.457,164.845 99.4565,169.511 89.5,172.5C 89.2606,170.533 89.5939,168.699 90.5,167C 87.4601,166.68 84.4601,166.68 81.5,167C 82.9423,166.623 83.9423,165.79 84.5,164.5C 90.2652,160.583 95.9319,156.416 101.5,152C 106.074,146.935 110.407,141.769 114.5,136.5 Z"/></g>
<g><path style="opacity:0.656" fill="#41adfc" d="M 56.5,159.5 C 60.2458,162.585 64.2458,165.251 68.5,167.5C 69.8333,168.167 70.8333,169.167 71.5,170.5C 65.6153,168.891 60.2819,166.224 55.5,162.5C 55.2627,161.209 55.596,160.209 56.5,159.5 Z"/></g>
<g><path style="opacity:0.944" fill="#f8da57" d="M 84.5,164.5 C 83.9423,165.79 82.9423,166.623 81.5,167C 84.4601,166.68 87.4601,166.68 90.5,167C 89.5939,168.699 89.2606,170.533 89.5,172.5C 79.7076,175.795 69.7076,177.129 59.5,176.5C 63.7168,174.668 67.7168,172.668 71.5,170.5C 75.9838,168.757 80.3171,166.757 84.5,164.5 Z"/></g>
</svg>
