 <svg  version="1.0" xmlns="http://www.w3.org/2000/svg"  width="300.000000pt" height="225.000000pt" viewBox="0 0 300.000000 225.000000"  preserveAspectRatio="xMidYMid meet">  <g transform="translate(0.000000,225.000000) scale(0.100000,-0.100000)" fill="#cfcfcf" stroke="none"> <path d="M1390 2000 c0 -17 30 -24 43 -10 10 10 8 12 -5 7 -10 -4 -18 -2 -18 3 0 6 -4 10 -10 10 -5 0 -10 -5 -10 -10z"/> <path d="M1368 1987 c11 -13 10 -16 -3 -20 -12 -4 -11 -5 2 -3 22 2 24 27 3 34 -13 4 -13 3 -2 -11z"/> <path d="M1363 1937 c-4 -6 0 -8 10 -4 11 4 17 1 17 -8 0 -8 5 -15 10 -15 6 0 10 7 10 16 0 14 2 15 17 3 14 -12 16 -12 11 1 -5 17 -65 23 -75 7z"/> <path d="M1949 1828 c-5 -17 -4 -50 3 -54 4 -3 8 9 8 25 0 17 -2 31 -5 31 -3 0 -5 -1 -6 -2z"/> <path d="M1081 1768 c-1 -9 -9 -19 -18 -21 -17 -4 -17 -5 0 -6 9 0 17 -6 17 -11 0 -6 6 -5 14 2 8 7 10 15 6 18 -4 3 -10 12 -13 20 -4 12 -6 12 -6 -2z"/> <path d="M1186 1728 c-14 -20 -16 -80 -16 -460 0 -425 1 -439 20 -458 19 -19 33 -20 315 -20 353 0 335 -6 335 117 0 74 0 76 19 59 23 -21 49 -18 65 6 9 15 2 26 -38 67 -48 48 -48 50 -41 97 8 62 8 126 0 232 l-7 83 68 -3 69 -3 0 -385 0 -385 -262 -3 -263 -2 -4 22 c-3 13 -7 32 -9 43 -3 11 -5 4 -6 -15 -1 -62 -10 -61 285 -58 l269 3 0 395 0 395 -72 3 -73 3 0 122 c0 183 32 167 -335 167 -303 0 -304 0 -319 -22z m617 0 c15 -12 17 -47 19 -316 2 -166 0 -302 -3 -302 -3 0 -16 11 -29 25 -13 14 -34 25 -47 25 -29 0 -29 1 2 46 14 20 25 42 24 48 0 6 -6 2 -12 -8 -29 -46 -85 -101 -122 -117 -48 -22 -142 -25 -188 -6 -155 65 -193 273 -70 389 41 39 94 58 163 58 38 0 59 4 55 10 -8 13 -90 13 -136 0 -49 -14 -119 -77 -147 -132 -31 -64 -30 -152 3 -217 70 -139 242 -184 363 -94 28 21 33 22 38 8 4 -9 4 -19 0 -22 -4 -4 20 -34 52 -67 l58 -61 -5 -88 c-4 -62 -10 -90 -21 -97 -9 -6 -137 -10 -296 -10 -226 0 -284 3 -300 14 -18 14 -19 29 -16 458 2 401 4 444 19 456 13 9 89 12 298 12 209 0 285 -3 298 -12z m31 -657 c54 -55 77 -84 73 -95 -4 -9 -10 -16 -14 -16 -5 0 -44 36 -87 79 -54 55 -77 84 -73 95 4 9 10 16 14 16 5 0 44 -36 87 -79z"/> <path d="M1282 1639 c2 -7 76 -11 228 -11 152 0 226 4 228 11 3 8 -66 11 -228 11 -162 0 -231 -3 -228 -11z"/> <path d="M1280 1570 c0 -13 90 -13 110 0 11 7 -3 10 -47 10 -36 0 -63 -4 -63 -10z"/> <path d="M1610 1572 c0 -8 43 -32 55 -32 15 0 1 19 -20 28 -31 14 -35 15 -35 4z"/> <path d="M1675 1570 c3 -5 19 -10 36 -10 16 0 29 5 29 10 0 6 -16 10 -36 10 -21 0 -33 -4 -29 -10z"/> <path d="M1680 1533 c0 -5 12 -20 26 -34 39 -36 63 -96 64 -159 0 -44 3 -51 11 -37 25 44 -26 191 -78 225 -13 8 -23 10 -23 5z"/> <path d="M1450 1521 c0 -5 -12 -14 -27 -19 -21 -8 9 -10 117 -10 115 0 139 2 118 11 -16 6 -28 14 -28 19 0 4 -40 8 -90 8 -49 0 -90 -4 -90 -9z"/> <path d="M1284 1496 c-3 -8 -4 -23 -2 -34 2 -15 6 -12 19 14 14 28 14 34 2 34 -7 0 -16 -6 -19 -14z"/> <path d="M1394 1382 c8 -9 22 -11 35 -7 32 10 25 21 -14 21 -30 0 -33 -2 -21 -14z"/> <path d="M1502 1383 c6 -7 16 -13 23 -13 7 0 17 6 23 13 9 10 4 13 -23 13 -27 0 -32 -3 -23 -13z"/> <path d="M1418 1309 c-30 -17 -20 -30 12 -14 16 8 36 15 45 15 9 0 29 -7 45 -15 17 -9 30 -11 30 -6 0 28 -95 42 -132 20z"/> <path d="M1280 1212 c0 -20 6 -35 15 -39 23 -8 23 -2 3 37 l-18 35 0 -33z"/> <path d="M1430 1180 c0 -5 14 -10 31 -10 17 0 28 -4 24 -10 -4 -6 16 -10 52 -10 41 0 54 3 43 10 -11 7 -7 10 18 10 17 0 32 5 32 10 0 6 -40 10 -100 10 -60 0 -100 -4 -100 -10z"/> <path d="M1287 1113 c-18 -17 -1 -23 71 -22 l77 1 -50 14 c-55 15 -88 18 -98 7z"/> <path d="M1280 1035 c0 -13 31 -15 231 -15 180 0 230 3 227 13 -4 9 -61 13 -231 15 -198 2 -227 0 -227 -13z"/> <path d="M1282 969 c2 -7 49 -10 128 -10 79 0 126 3 128 10 3 8 -39 11 -128 11 -89 0 -131 -3 -128 -11z"/> <path d="M1582 969 c2 -7 31 -11 73 -11 42 0 71 4 73 11 2 7 -21 11 -73 11 -52 0 -75 -4 -73 -11z"/> <path d="M1280 900 c0 -6 83 -10 230 -10 147 0 230 4 230 10 0 6 -83 10 -230 10 -147 0 -230 -4 -230 -10z"/> <path d="M1131 1662 c-7 -14 -11 -161 -11 -447 l0 -426 25 -24 c25 -26 49 -32 60 -16 3 5 -7 11 -22 13 -51 6 -53 18 -53 461 0 274 4 415 11 429 6 11 8 22 6 25 -3 2 -10 -4 -16 -15z"/> <path d="M2234 1470 c0 -11 8 -17 21 -17 13 0 21 6 21 17 0 11 -8 18 -21 18 -13 0 -21 -7 -21 -18z"/> <path d="M803 1319 c-18 -18 12 -45 30 -27 11 10 12 15 1 25 -15 16 -17 16 -31 2z"/> <path d="M1008 976 c-10 -7 -18 -17 -18 -21 0 -11 32 -34 48 -35 7 0 12 13 12 35 0 37 -13 44 -42 21z m22 -21 c0 -9 -6 -12 -15 -9 -8 4 -12 10 -9 15 8 14 24 10 24 -6z"/> <path d="M2042 844 c-14 -15 -16 -28 -3 -19 5 3 12 -3 14 -12 4 -17 5 -17 6 0 0 10 6 15 11 12 14 -9 12 4 -3 19 -10 11 -15 11 -25 0z"/> <path d="M1440 395 c0 -43 4 -75 10 -75 6 0 10 32 10 75 0 43 -4 75 -10 75 -6 0 -10 -32 -10 -75z"/> <path d="M1990 395 c0 -80 17 -104 22 -32 2 29 8 42 18 42 10 0 16 -13 18 -42 4 -54 22 -57 22 -4 0 43 -22 74 -45 65 -11 -5 -15 1 -15 20 0 14 -4 26 -10 26 -6 0 -10 -32 -10 -75z"/> <path d="M757 453 c-11 -10 -8 -121 3 -128 6 -4 10 14 10 47 l0 53 35 -53 c20 -28 38 -52 40 -52 3 0 5 32 5 70 0 44 -4 70 -11 70 -7 0 -10 -18 -7 -50 1 -28 2 -50 2 -50 -1 0 -16 23 -34 50 -35 54 -34 53 -43 43z"/> <path d="M1030 390 c0 -40 4 -70 10 -70 6 0 10 14 10 30 0 25 4 30 24 30 19 0 25 -6 28 -27 2 -14 9 -28 17 -31 10 -3 11 2 5 19 -4 13 -7 41 -6 61 1 42 -17 58 -62 58 -25 0 -26 -2 -26 -70z m68 28 c3 -13 -3 -18 -22 -18 -20 0 -26 5 -26 21 0 15 5 20 22 17 13 -2 24 -11 26 -20z"/> <path d="M1482 430 c-7 -12 -8 -20 -2 -20 5 0 10 -18 10 -39 0 -42 14 -61 33 -42 8 8 8 11 -1 11 -7 0 -12 14 -12 35 0 19 5 35 10 35 6 0 5 8 -2 20 -7 11 -15 20 -18 20 -3 0 -11 -9 -18 -20z"/> <path d="M1682 430 c-7 -12 -8 -20 -2 -20 5 0 10 -18 10 -39 0 -38 22 -63 35 -41 4 6 1 10 -4 10 -15 0 -14 67 2 73 10 4 10 6 0 6 -7 1 -13 8 -13 16 0 21 -13 19 -28 -5z"/> <path d="M896 414 c-20 -20 -20 -58 0 -78 19 -19 25 -20 48 -3 33 24 14 97 -25 97 -4 0 -15 -7 -23 -16z m45 -25 c9 -17 8 -25 -4 -36 -19 -19 -37 -9 -37 21 0 40 23 49 41 15z"/> <path d="M1167 419 c-24 -14 -23 -75 2 -89 21 -11 51 -4 51 12 0 5 -8 7 -19 3 -10 -3 -24 1 -31 10 -11 13 -8 15 23 15 30 0 34 3 30 20 -7 27 -34 41 -56 29z m38 -19 c3 -5 -3 -10 -14 -10 -12 0 -21 5 -21 10 0 6 6 10 14 10 8 0 18 -4 21 -10z"/> <path d="M1258 419 c-28 -16 -21 -38 15 -53 28 -12 29 -15 13 -21 -11 -5 -21 -3 -26 6 -5 7 -13 10 -17 5 -8 -7 23 -36 38 -36 14 0 39 32 33 41 -3 6 -17 14 -30 19 -25 10 -33 30 -11 30 7 0 18 -5 25 -12 9 -9 12 -8 12 4 0 9 -7 19 -16 22 -19 7 -15 8 -36 -5z"/> <path d="M1337 423 c-6 -12 4 -93 12 -94 3 -1 18 -2 34 -3 26 -2 27 -1 27 52 0 34 -4 51 -10 47 -6 -4 -8 -15 -5 -26 9 -26 -3 -59 -20 -59 -16 0 -30 42 -22 65 6 15 -8 31 -16 18z"/> <path d="M1556 414 c-19 -18 -13 -32 20 -44 13 -5 24 -14 24 -20 0 -13 -27 -13 -35 0 -8 13 -25 13 -25 0 0 -18 39 -31 60 -20 24 13 26 39 5 45 -48 15 -48 16 -37 27 8 8 15 8 27 -2 8 -7 19 -10 23 -6 7 7 -24 36 -39 36 -4 0 -15 -7 -23 -16z"/> <path d="M1760 410 c-11 -11 -20 -27 -20 -35 0 -16 35 -55 49 -55 18 0 41 31 41 55 0 24 -23 55 -41 55 -5 0 -18 -9 -29 -20z m45 -36 c0 -32 -21 -39 -38 -12 -8 12 -7 21 3 32 19 24 35 14 35 -20z"/> <path d="M1905 417 c-21 -16 -13 -34 21 -47 13 -5 24 -14 24 -20 0 -13 -27 -13 -35 0 -8 13 -25 13 -25 0 0 -18 39 -31 60 -20 29 16 24 37 -12 49 -24 8 -29 14 -20 23 8 8 15 8 27 -2 8 -7 19 -10 23 -6 4 4 -2 14 -12 22 -24 17 -28 17 -51 1z"/> <path d="M2108 419 c-25 -14 -24 -75 1 -89 25 -13 27 -13 45 6 9 8 16 26 16 39 0 22 -23 55 -38 55 -4 0 -15 -5 -24 -11z m37 -45 c0 -32 -21 -39 -38 -12 -8 12 -7 21 3 32 19 24 35 14 35 -20z"/> <path d="M2183 416 c3 -8 11 -33 17 -56 12 -46 19 -45 36 3 l11 32 10 -35 c12 -45 24 -42 40 12 15 51 16 58 4 58 -5 0 -12 -17 -16 -37 l-8 -38 -11 32 c-16 46 -25 50 -32 14 -8 -36 -24 -52 -24 -22 0 27 -10 51 -22 51 -6 0 -8 -6 -5 -14z"/> </g> </svg> 